<svg width="16" height="16" viewBox="0 0 16 16" fill="none" xmlns="http://www.w3.org/2000/svg">
<g clip-path="url(#clip0_2_44)">
<path d="M8.00004 16C12.4183 16 16 12.4183 16 8.00004C16 3.58176 12.4183 3.8147e-05 8.00004 3.8147e-05C3.58176 3.8147e-05 3.8147e-05 3.58176 3.8147e-05 8.00004C3.8147e-05 12.4183 3.58176 16 8.00004 16Z" fill="#3C5A9A"/>
<path d="M10.6013 2.45558H8.82907C7.77739 2.45558 6.60762 2.8979 6.60762 4.42236C6.61275 4.95354 6.60762 5.46225 6.60762 6.03477H5.39097V7.97083H6.64527V13.5444H8.95011V7.93405H10.4714L10.609 6.02934H8.9104C8.9104 6.02934 8.9142 5.18205 8.9104 4.93599C8.9104 4.33356 9.53725 4.36806 9.57495 4.36806C9.87325 4.36806 10.4532 4.36893 10.6021 4.36806V2.45558H10.6013Z" fill="white"/>
</g>
<defs>
<clipPath id="clip0_2_44">
<rect width="16" height="16" fill="white"/>
</clipPath>
</defs>
</svg>
