<svg width="16" height="16" viewBox="0 0 16 16" fill="none" xmlns="http://www.w3.org/2000/svg">
<g clip-path="url(#clip0_2_38)">
<path d="M15.528 8.14968C15.528 7.49416 15.4752 7.01581 15.3608 6.51975H7.92286V9.47841H12.2888C12.2008 10.2137 11.7254 11.321 10.6691 12.065L10.6543 12.1641L13.0061 13.9976L13.169 14.0139C14.6654 12.6231 15.528 10.5769 15.528 8.14968Z" fill="#4285F4"/>
<path d="M7.92286 15.945C10.0618 15.945 11.8574 15.2363 13.169 14.0139L10.6691 12.065C10.0002 12.5345 9.10233 12.8623 7.92286 12.8623C5.82793 12.8623 4.04988 11.4716 3.41605 9.54931L3.32315 9.55725L0.87778 11.4618L0.8458 11.5513C2.14852 14.1556 4.82442 15.945 7.92286 15.945Z" fill="#34A853"/>
<path d="M3.41605 9.54932C3.24881 9.05325 3.15202 8.52171 3.15202 7.97252C3.15202 7.42327 3.24881 6.89179 3.40725 6.39573L3.40282 6.29008L0.926811 4.35493L0.8458 4.39371C0.308884 5.47445 0.000801086 6.68806 0.000801086 7.97252C0.000801086 9.25698 0.308884 10.4705 0.8458 11.5513L3.41605 9.54932Z" fill="#FBBC05"/>
<path d="M7.92286 3.08269C9.41042 3.08269 10.4139 3.72934 10.986 4.26974L13.2218 2.07285C11.8487 0.788397 10.0618 0 7.92286 0C4.82443 0 2.14852 1.78937 0.8458 4.39371L3.40725 6.39573C4.04988 4.47347 5.82793 3.08269 7.92286 3.08269Z" fill="#EB4335"/>
</g>
<defs>
<clipPath id="clip0_2_38">
<rect width="15.5362" height="16" fill="white"/>
</clipPath>
</defs>
</svg>
